<svg width="201" height="313" viewBox="0 0 201 313" fill="none" xmlns="http://www.w3.org/2000/svg">
<path d="M97.6992 155.234C105.471 148.875 111.093 137.289 116.696 136.779C125.652 135.965 132.98 137.051 145.463 135.422C157.947 133.794 165.275 128.638 166.632 129.452C168.193 131.094 172.06 132.709 174.231 134.337C176.402 135.965 184.919 146.031 189.428 154.962C193.976 163.97 195.199 169.735 197.027 179.659C199.371 192.381 201.782 200.362 198.113 212.768C194.993 223.314 191.267 229.189 183.186 236.65C172.716 246.317 150.62 249.134 149.806 251.034C148.991 252.933 147.464 263.927 144.649 271.93C140.605 283.428 138.566 290.952 129.723 299.34C122.904 305.809 117.65 314.52 108.826 311.282C102.256 308.871 100.753 303.257 98.5135 296.627C95.4174 287.463 97.9708 280.072 100.413 271.93C102.856 263.789 121.31 248.048 114.254 248.048C107.198 248.048 91.6411 251.532 80.6019 244.249C70.2396 237.412 66.452 229.289 64.0473 217.11C62.0679 207.085 61.3334 207.883 66.4898 191.057C71.6461 174.231 77.3966 167.718 80.6019 165.546C79.7876 163.918 82.7729 167.446 97.6992 155.234Z" fill="#C69374"/>
<path d="M80.6019 165.546C79.7876 163.918 82.7729 167.446 97.6992 155.234C105.471 148.875 111.093 137.289 116.696 136.779C125.652 135.965 132.98 137.051 145.463 135.422C157.947 133.794 165.275 128.638 166.632 129.452M80.6019 165.546C81.4162 167.175 83.8072 163.375 80.6019 165.546ZM80.6019 165.546C77.3966 167.718 71.6461 174.231 66.4898 191.057C61.3334 207.883 62.0679 207.085 64.0473 217.11C66.452 229.289 70.2396 237.412 80.6019 244.249C91.6411 251.532 107.198 248.048 114.254 248.048C121.31 248.048 102.856 263.789 100.413 271.93C97.9708 280.072 95.4174 287.463 98.5135 296.627C100.753 303.257 102.256 308.871 108.826 311.282C117.65 314.52 122.904 305.809 129.723 299.34C138.566 290.952 140.605 283.428 144.649 271.93C147.464 263.927 148.991 252.933 149.806 251.034C150.62 249.134 172.716 246.317 183.186 236.65C191.267 229.189 194.993 223.314 198.113 212.768C201.782 200.362 199.371 192.381 197.027 179.659C195.199 169.735 193.976 163.97 189.428 154.962C184.919 146.031 176.402 135.965 174.231 134.337C172.06 132.709 168.193 131.094 166.632 129.452M166.632 129.452C165.546 128.31 167.989 130.266 166.632 129.452Z" stroke="black"/>
<mask id="path-4-inside-1" fill="white">
<path fill-rule="evenodd" clip-rule="evenodd" d="M119.573 7.6096C123.833 0.863808 132.479 -1.60914 139.662 1.86327C145.629 4.7476 148.202 11.8677 145.457 17.9L142.841 23.6496C150.598 27.7949 157.772 32.5148 164.044 37.5203C182.227 53.8036 186.977 77.9722 185.755 89.0838C185.755 115.163 178.699 139.562 117.094 137.391C115.046 136.879 112.329 140.051 108.507 144.514C98.1428 156.613 79.6536 178.199 44.362 161.544C23.6107 154.962 12.3383 104.282 12.3383 104.282C12.3383 104.282 10.6624 93.8183 12.1774 79.5351L11.1987 79.2602C3.43488 77.0798 -1.27737 69.2186 0.458852 61.3435C1.84232 55.0685 7.98222 51.0455 14.2878 52.2826L18.5746 53.1236C24.4461 38.4912 34.9818 23.7789 53.5893 13.6383C72.9029 5.32391 95.3553 6.39165 116.368 12.684L119.573 7.6096Z"/>
</mask>
<path fill-rule="evenodd" clip-rule="evenodd" d="M119.573 7.6096C123.833 0.863808 132.479 -1.60914 139.662 1.86327C145.629 4.7476 148.202 11.8677 145.457 17.9L142.841 23.6496C150.598 27.7949 157.772 32.5148 164.044 37.5203C182.227 53.8036 186.977 77.9722 185.755 89.0838C185.755 115.163 178.699 139.562 117.094 137.391C115.046 136.879 112.329 140.051 108.507 144.514C98.1428 156.613 79.6536 178.199 44.362 161.544C23.6107 154.962 12.3383 104.282 12.3383 104.282C12.3383 104.282 10.6624 93.8183 12.1774 79.5351L11.1987 79.2602C3.43488 77.0798 -1.27737 69.2186 0.458852 61.3435C1.84232 55.0685 7.98222 51.0455 14.2878 52.2826L18.5746 53.1236C24.4461 38.4912 34.9818 23.7789 53.5893 13.6383C72.9029 5.32391 95.3553 6.39165 116.368 12.684L119.573 7.6096Z" fill="#FDEDD2"/>
<path d="M139.662 1.86327L140.097 0.962945V0.962944L139.662 1.86327ZM119.573 7.6096L120.419 8.14358L119.573 7.6096ZM145.457 17.9L144.547 17.4858L145.457 17.9ZM142.841 23.6496L141.931 23.2355L141.542 24.0894L142.369 24.5316L142.841 23.6496ZM164.044 37.5203L164.711 36.7753L164.69 36.7564L164.668 36.7387L164.044 37.5203ZM185.755 89.0838L184.761 88.9745L184.755 89.029V89.0838H185.755ZM117.094 137.391L116.851 138.361L116.953 138.387L117.059 138.39L117.094 137.391ZM108.507 144.514L107.748 143.863L108.507 144.514ZM44.362 161.544L44.7888 160.64L44.7282 160.611L44.6644 160.591L44.362 161.544ZM12.3383 104.282L11.3509 104.44L11.3556 104.469L11.3622 104.499L12.3383 104.282ZM12.1774 79.5351L13.1718 79.6405L13.2609 78.8007L12.4478 78.5723L12.1774 79.5351ZM11.1987 79.2602L10.9283 80.223H10.9283L11.1987 79.2602ZM0.458852 61.3435L1.4354 61.5588L0.458852 61.3435ZM14.2878 52.2826L14.0952 53.2639L14.2878 52.2826ZM18.5746 53.1236L18.382 54.1049L19.1943 54.2643L19.5026 53.496L18.5746 53.1236ZM53.5893 13.6383L53.1939 12.7197L53.1514 12.738L53.1108 12.7602L53.5893 13.6383ZM116.368 12.684L116.081 13.6419L116.808 13.8597L117.214 13.218L116.368 12.684ZM140.097 0.962944C132.456 -2.73084 123.26 -0.100233 118.728 7.07561L120.419 8.14358C124.407 1.82785 132.502 -0.487445 139.227 2.76359L140.097 0.962944ZM146.367 18.3141C149.337 11.7875 146.553 4.0837 140.097 0.962945L139.227 2.76359C144.704 5.41151 147.066 11.948 144.547 17.4858L146.367 18.3141ZM143.751 24.0638L146.367 18.3141L144.547 17.4858L141.931 23.2355L143.751 24.0638ZM164.668 36.7387C158.346 31.6934 151.121 26.9403 143.312 22.7676L142.369 24.5316C150.076 28.6495 157.198 33.3363 163.42 38.3019L164.668 36.7387ZM186.749 89.1932C187.38 83.4601 186.467 74.4886 183.12 64.9116C179.769 55.3204 173.953 45.052 164.711 36.7753L163.377 38.2652C172.318 46.2718 177.968 56.2295 181.232 65.5713C184.501 74.9274 185.353 83.596 184.761 88.9745L186.749 89.1932ZM117.059 138.39C147.944 139.479 165.456 133.927 175.219 124.553C184.998 115.162 186.755 102.17 186.755 89.0838H184.755C184.755 102.078 182.983 114.324 173.834 123.11C164.667 131.912 147.848 137.474 117.129 136.391L117.059 138.39ZM109.266 145.164C111.194 142.914 112.783 141.062 114.139 139.826C114.816 139.21 115.386 138.793 115.866 138.558C116.34 138.326 116.645 138.309 116.851 138.361L117.336 136.421C116.519 136.216 115.717 136.404 114.986 136.762C114.261 137.118 113.529 137.677 112.793 138.348C111.323 139.686 109.642 141.651 107.748 143.863L109.266 145.164ZM43.9353 162.449C61.8271 170.892 75.5846 169.681 86.2056 164.718C96.7567 159.787 104.097 151.199 109.266 145.164L107.748 143.863C102.553 149.928 95.4664 158.183 85.3589 162.906C75.3214 167.597 62.1886 168.851 44.7888 160.64L43.9353 162.449ZM12.3383 104.282C11.3622 104.499 11.3622 104.499 11.3624 104.5C11.3625 104.5 11.3626 104.501 11.3628 104.502C11.3632 104.504 11.3638 104.506 11.3645 104.509C11.366 104.516 11.3682 104.526 11.371 104.538C11.3768 104.564 11.3852 104.601 11.3964 104.65C11.4188 104.748 11.4522 104.893 11.4965 105.081C11.5851 105.458 11.7174 106.01 11.8929 106.714C12.244 108.122 12.7681 110.138 13.462 112.577C14.8492 117.453 16.9175 124.029 19.6403 130.817C22.3606 137.599 25.7483 144.629 29.7847 150.394C33.8061 156.137 38.5607 160.753 44.0597 162.498L44.6644 160.591C39.7877 159.044 35.3515 154.857 31.423 149.247C27.5095 143.657 24.1883 136.783 21.4965 130.072C18.8074 123.368 16.7606 116.862 15.3857 112.03C14.6986 109.614 14.18 107.62 13.8335 106.23C13.6603 105.536 13.5301 104.992 13.4434 104.624C13.4001 104.439 13.3677 104.299 13.3461 104.204C13.3354 104.157 13.3274 104.122 13.3221 104.098C13.3194 104.087 13.3175 104.078 13.3162 104.072C13.3156 104.069 13.3151 104.067 13.3148 104.066C13.3147 104.065 13.3146 104.065 13.3145 104.065C13.3145 104.065 13.3145 104.064 12.3383 104.282ZM11.183 79.4296C10.4188 86.6337 10.4593 92.8742 10.6911 97.3167C10.807 99.5385 10.9708 101.312 11.1062 102.534C11.1739 103.145 11.2345 103.617 11.2785 103.939C11.3004 104.1 11.3182 104.224 11.3307 104.308C11.337 104.35 11.3419 104.382 11.3453 104.404C11.347 104.415 11.3483 104.423 11.3493 104.429C11.3497 104.432 11.3501 104.435 11.3504 104.436C11.3505 104.437 11.3506 104.438 11.3507 104.439C11.3508 104.439 11.3508 104.439 11.3508 104.439C11.3509 104.44 11.3509 104.44 12.3383 104.282C13.3257 104.123 13.3257 104.124 13.3258 104.124C13.3258 104.124 13.3258 104.124 13.3258 104.124C13.3257 104.124 13.3257 104.123 13.3256 104.123C13.3255 104.122 13.3253 104.121 13.325 104.119C13.3243 104.114 13.3233 104.108 13.3218 104.099C13.319 104.08 13.3147 104.052 13.309 104.014C13.2977 103.937 13.281 103.822 13.2601 103.669C13.2183 103.363 13.1598 102.907 13.094 102.313C12.9625 101.127 12.8021 99.3919 12.6884 97.2125C12.4609 92.8525 12.421 86.7197 13.1718 79.6405L11.183 79.4296ZM12.4478 78.5723L11.4691 78.2974L10.9283 80.223L11.907 80.4978L12.4478 78.5723ZM11.4691 78.2974C4.21575 76.2604 -0.186662 68.9161 1.4354 61.5588L-0.517695 61.1282C-2.36808 69.5211 2.65401 77.8991 10.9283 80.223L11.4691 78.2974ZM1.4354 61.5588C2.70191 55.8143 8.32276 52.1314 14.0952 53.2639L14.4803 51.3013C7.64168 49.9596 0.982725 54.3227 -0.517695 61.1282L1.4354 61.5588ZM14.0952 53.2639L18.382 54.1049L18.7671 52.1423L14.4803 51.3013L14.0952 53.2639ZM53.1108 12.7602C34.266 23.0301 23.5893 37.9411 17.6465 52.7512L19.5026 53.496C25.3028 39.0413 35.6976 24.5276 54.0678 14.5163L53.1108 12.7602ZM116.655 11.726C95.504 5.3923 72.7939 4.28209 53.1939 12.7197L53.9847 14.5568C73.0118 6.36573 95.2067 7.391 116.081 13.6419L116.655 11.726ZM118.728 7.07561L115.523 12.15L117.214 13.218L120.419 8.14358L118.728 7.07561Z" fill="black" mask="url(#path-4-inside-1)"/>
<path d="M113.711 125.11C107.198 126.16 94.1714 109.369 94.1714 109.369L100.413 101.499H112.083C112.083 101.499 120.225 124.059 113.711 125.11Z" fill="#FDA6B9" stroke="#542E2F" stroke-width="4"/>
<path d="M94.7143 96.8854C90.6538 97.8104 84.4016 94.1716 84.4016 94.1716C84.4016 94.1716 83.4956 89.3986 84.4016 86.5727C85.3723 83.545 86.4308 81.4572 89.2865 80.0594C92.0471 78.7082 94.1721 79.3259 97.1568 80.0594C99.9184 80.7381 103.67 83.3161 103.67 83.3161C103.67 83.3161 103.542 90.0871 100.956 93.086C99.0926 95.2472 97.4967 96.2516 94.7143 96.8854Z" fill="#542E2F" stroke="#542E2F" stroke-width="4"/>
<path d="M84.6433 105.988C84.6433 105.988 81.9288 109.703 88.9865 110.669C96.0441 111.635 100.116 100.005 100.116 100.005M100.116 100.005L97.6729 95.3238M100.116 100.005C100.116 100.005 115.046 104.687 118.032 96.6242C121.018 88.5614 115.046 89.6018 115.046 89.6018" stroke="#461F21" stroke-width="4"/>
<path d="M112.464 77.5793C112.464 77.5793 115.941 73.2684 119.107 72.249C122.076 71.2932 127.09 72.4848 127.09 72.4848" stroke="#542E2F" stroke-width="9"/>
<path d="M64.9869 108.004C64.9869 108.004 65.7129 102.513 67.8862 99.9951C69.924 97.634 74.8258 96.0424 74.8258 96.0424" stroke="#542E2F" stroke-width="9"/>
<ellipse cx="144.378" cy="75.7172" rx="16.2832" ry="16.0119" fill="#FCC7B5" fill-opacity="0.5"/>
<ellipse cx="55.3631" cy="120.768" rx="16.2832" ry="16.0119" fill="#FCC7B5" fill-opacity="0.5"/>
<path d="M171.517 191.6C163.375 205.983 155.843 228.508 136.508 228.508C110.183 224.166 111.812 210.868 103.941 191.6C103.941 171.215 118.325 178.302 126.195 158.762C155.234 152.791 179.658 177.216 171.517 191.6Z" fill="#FDEDD2"/>
<path d="M115.611 151.706C116.425 148.178 111.269 147.364 111.269 147.364C111.269 147.364 115.517 144.462 118.596 144.378C121.176 144.308 122.797 144.128 124.567 146.007C126.175 147.714 126.195 149.263 125.924 151.706C125.393 156.483 123.481 163.647 123.481 163.647C123.481 163.647 116.968 160.39 118.325 157.134C119.682 153.877 114.797 155.234 115.611 151.706Z" fill="#FDEDD2" stroke="#FDEDD2"/>
<path d="M146.099 142.577C143.873 139.721 147.635 139.493 147.635 139.493C147.635 139.493 139.765 137.322 138.136 137.594C135.591 138.018 136.471 137.949 135.422 140.307C134.337 142.75 135.523 146.391 136.508 148.643C138.679 153.605 143.998 156.723 143.998 156.723C143.998 156.723 148.531 151.023 145.927 148.643C143.323 146.262 148.325 145.432 146.099 142.577Z" fill="#FDEDD2" stroke="#FDEDD2"/>
<path d="M94.9133 157.772C94.9133 157.772 113.678 142.681 121.398 144.213C129.118 145.744 125.908 154.198 124.776 160.654C122.601 173.058 98.4056 179.216 98.4056 179.216" stroke="#542E2F"/>
<path d="M158.556 132.836C158.556 132.836 155.769 137.075 153.149 138.825C147.403 142.663 138.674 133.094 135.46 139.21C133.076 143.749 135.494 147.764 138.362 152.014C140.879 155.743 143.326 157.361 147.509 159.018C155.512 162.187 169.224 155.235 169.224 155.235" stroke="#542E2F"/>
<path d="M94.7142 214.064C94.7142 214.064 88.4491 206.998 84.6729 209.179C82.0449 210.697 81.4163 216.236 81.4163 216.236C81.4163 216.236 84.6729 241.561 101.228 239.032C117.782 236.503 118.868 216.236 118.868 216.236C118.868 216.236 117.787 205.75 112.897 205.109C108.067 204.475 104.213 214.064 104.213 214.064C104.213 214.064 101.604 201.234 96.8853 203.209C92.8972 204.878 94.7142 214.064 94.7142 214.064Z" fill="#FDEDD2" stroke="#542E2F"/>
<path d="M163.104 212.241C163.104 212.241 161.143 204.486 157.134 203.556C152.237 202.421 147.635 212.241 147.635 212.241C147.635 212.241 147.364 235.309 167.989 235.309C188.614 235.309 185.901 214.14 185.901 214.14C185.901 214.14 184.123 204.891 179.93 205.185C176.397 205.432 174.231 212.241 174.231 212.241C174.231 212.241 172.672 201.449 167.989 201.928C163.556 202.381 163.104 212.241 163.104 212.241Z" fill="#FDEDD2" stroke="#542E2F"/>
<path d="M3.79936 61.6051C1.75201 66.7186 10.8554 73.8176 10.8554 73.8176C10.8554 73.8176 10.6728 68.3904 11.6696 65.1332C12.7391 61.6387 16.2832 56.9915 16.2832 56.9915C16.2832 56.9915 5.73126 56.78 3.79936 61.6051Z" fill="#FCC7B5"/>
<path d="M137.086 5.84242C131.768 2.74909 122.586 12.2169 122.586 12.2169C122.586 12.2169 128.586 12.7862 132.02 14.4026C135.705 16.1368 140.286 20.8875 140.286 20.8875C140.286 20.8875 142.106 8.76134 137.086 5.84242Z" fill="#FCC7B5"/>
</svg>
